<svg xmlns="http://www.w3.org/2000/svg">
<defs>
<linearGradient id="paint0_linear" x1="495.123" y1="98.541" x2="202.988" y2="390.675" gradientUnits="userSpaceOnUse"> <stop stop-color="#ABD1F0"/> <stop offset="1" stop-color="#ABD2F1" stop-opacity="0"/> </linearGradient> <linearGradient id="paint1_linear" x1="485.392" y1="90.1849" x2="201.473" y2="358.592" gradientUnits="userSpaceOnUse"> <stop stop-color="#ABD1F0"/> <stop offset="1" stop-color="#ABD2F1" stop-opacity="0"/> </linearGradient>
</defs>
<symbol id="facebook" viewBox="0 0 32 32"> <path d="M29.3334 21.5868C29.3334 26.4401 26.4401 29.3334 21.5868 29.3334H20.0001C19.2667 29.3334 18.6667 28.7334 18.6667 28.0001V20.3068C18.6667 19.9468 18.9601 19.6401 19.3201 19.6401L21.6667 19.6001C21.8534 19.5868 22.0134 19.4534 22.0534 19.2668L22.5201 16.7201C22.5601 16.4801 22.3734 16.2534 22.1201 16.2534L19.2801 16.2934C18.9067 16.2934 18.6134 16.0001 18.6001 15.6401L18.5468 12.3734C18.5468 12.1601 18.7201 11.9734 18.9467 11.9734L22.1467 11.9201C22.3734 11.9201 22.5468 11.7468 22.5468 11.5201L22.4934 8.32007C22.4934 8.0934 22.3201 7.92009 22.0934 7.92009L18.4934 7.97343C16.2801 8.01343 14.5201 9.82675 14.5601 12.0401L14.6267 15.7067C14.6401 16.0801 14.3468 16.3734 13.9734 16.3868L12.3734 16.4134C12.1467 16.4134 11.9734 16.5867 11.9734 16.8134L12.0134 19.3468C12.0134 19.5734 12.1867 19.7467 12.4134 19.7467L14.0134 19.7201C14.3868 19.7201 14.6801 20.0134 14.6934 20.3734L14.8134 27.9734C14.8267 28.7201 14.2267 29.3334 13.4801 29.3334H10.4134C5.56008 29.3334 2.66675 26.4401 2.66675 21.5734V10.4134C2.66675 5.56008 5.56008 2.66675 10.4134 2.66675H21.5868C26.4401 2.66675 29.3334 5.56008 29.3334 10.4134V21.5868Z" fill="white"/> </symbol>
<symbol id="instagram" viewBox="0 0 32 32"> <path d="M21.5867 2.66675H10.4134C5.56008 2.66675 2.66675 5.56008 2.66675 10.4134V21.5734C2.66675 26.4401 5.56008 29.3334 10.4134 29.3334H21.5734C26.4267 29.3334 29.3201 26.4401 29.3201 21.5867V10.4134C29.3334 5.56008 26.4401 2.66675 21.5867 2.66675ZM16.0001 21.1734C13.1467 21.1734 10.8267 18.8534 10.8267 16.0001C10.8267 13.1467 13.1467 10.8267 16.0001 10.8267C18.8534 10.8267 21.1734 13.1467 21.1734 16.0001C21.1734 18.8534 18.8534 21.1734 16.0001 21.1734ZM23.8934 9.17341C23.8267 9.33341 23.7334 9.48008 23.6134 9.61341C23.4801 9.73341 23.3334 9.82675 23.1734 9.89341C23.0134 9.96008 22.8401 10.0001 22.6667 10.0001C22.3067 10.0001 21.9734 9.86675 21.7201 9.61341C21.6001 9.48008 21.5067 9.33341 21.4401 9.17341C21.3734 9.01341 21.3334 8.84008 21.3334 8.66675C21.3334 8.49341 21.3734 8.32008 21.4401 8.16008C21.5067 7.98675 21.6001 7.85341 21.7201 7.72008C22.0267 7.41341 22.4934 7.26675 22.9201 7.36008C23.0134 7.37341 23.0934 7.40008 23.1734 7.44008C23.2534 7.46675 23.3334 7.50675 23.4134 7.56008C23.4801 7.60008 23.5467 7.66675 23.6134 7.72008C23.7334 7.85341 23.8267 7.98675 23.8934 8.16008C23.9601 8.32008 24.0001 8.49341 24.0001 8.66675C24.0001 8.84008 23.9601 9.01341 23.8934 9.17341Z" fill="white"/> </symbol>
<symbol id="loc" viewBox="0 0 24 24"> <path d="M11.9999 14.1699C9.86988 14.1699 8.12988 12.4399 8.12988 10.2999C8.12988 8.15994 9.86988 6.43994 11.9999 6.43994C14.1299 6.43994 15.8699 8.16994 15.8699 10.3099C15.8699 12.4499 14.1299 14.1699 11.9999 14.1699ZM11.9999 7.93994C10.6999 7.93994 9.62988 8.99994 9.62988 10.3099C9.62988 11.6199 10.6899 12.6799 11.9999 12.6799C13.3099 12.6799 14.3699 11.6199 14.3699 10.3099C14.3699 8.99994 13.2999 7.93994 11.9999 7.93994Z" fill="#00CCFF"/> <path d="M11.9999 22.76C10.5199 22.76 9.02993 22.2 7.86993 21.09C4.91993 18.25 1.65993 13.72 2.88993 8.33C3.99993 3.44 8.26993 1.25 11.9999 1.25C11.9999 1.25 11.9999 1.25 12.0099 1.25C15.7399 1.25 20.0099 3.44 21.1199 8.34C22.3399 13.73 19.0799 18.25 16.1299 21.09C14.9699 22.2 13.4799 22.76 11.9999 22.76ZM11.9999 2.75C9.08993 2.75 5.34993 4.3 4.35993 8.66C3.27993 13.37 6.23993 17.43 8.91993 20C10.6499 21.67 13.3599 21.67 15.0899 20C17.7599 17.43 20.7199 13.37 19.6599 8.66C18.6599 4.3 14.9099 2.75 11.9999 2.75Z" fill="#00CCFF"/> </symbol>
<symbol id="location" viewBox="0 0 24 24"> <path d="M11.9999 14.1699C9.86988 14.1699 8.12988 12.4399 8.12988 10.2999C8.12988 8.15994 9.86988 6.43994 11.9999 6.43994C14.1299 6.43994 15.8699 8.16994 15.8699 10.3099C15.8699 12.4499 14.1299 14.1699 11.9999 14.1699ZM11.9999 7.93994C10.6999 7.93994 9.62988 8.99994 9.62988 10.3099C9.62988 11.6199 10.6899 12.6799 11.9999 12.6799C13.3099 12.6799 14.3699 11.6199 14.3699 10.3099C14.3699 8.99994 13.2999 7.93994 11.9999 7.93994Z" fill="#00CCFF"/> <path d="M11.9999 22.76C10.5199 22.76 9.02993 22.2 7.86993 21.09C4.91993 18.25 1.65993 13.72 2.88993 8.33C3.99993 3.44 8.26993 1.25 11.9999 1.25C11.9999 1.25 11.9999 1.25 12.0099 1.25C15.7399 1.25 20.0099 3.44 21.1199 8.34C22.3399 13.73 19.0799 18.25 16.1299 21.09C14.9699 22.2 13.4799 22.76 11.9999 22.76ZM11.9999 2.75C9.08993 2.75 5.34993 4.3 4.35993 8.66C3.27993 13.37 6.23993 17.43 8.91993 20C10.6499 21.67 13.3599 21.67 15.0899 20C17.7599 17.43 20.7199 13.37 19.6599 8.66C18.6599 4.3 14.9099 2.75 11.9999 2.75Z" fill="#00CCFF"/> </symbol>
<symbol id="mail" viewBox="0 0 24 24"> <path d="M17 21.25H7C3.35 21.25 1.25 19.15 1.25 15.5V8.5C1.25 4.85 3.35 2.75 7 2.75H17C20.65 2.75 22.75 4.85 22.75 8.5V15.5C22.75 19.15 20.65 21.25 17 21.25ZM7 4.25C4.14 4.25 2.75 5.64 2.75 8.5V15.5C2.75 18.36 4.14 19.75 7 19.75H17C19.86 19.75 21.25 18.36 21.25 15.5V8.5C21.25 5.64 19.86 4.25 17 4.25H7Z" fill="#00CCFF"/> <path d="M11.9998 12.87C11.1598 12.87 10.3098 12.61 9.65978 12.08L6.52978 9.57997C6.20978 9.31997 6.14978 8.84997 6.40978 8.52997C6.66978 8.20997 7.13978 8.14997 7.45978 8.40997L10.5898 10.91C11.3498 11.52 12.6398 11.52 13.3998 10.91L16.5298 8.40997C16.8498 8.14997 17.3298 8.19997 17.5798 8.52997C17.8398 8.84997 17.7898 9.32997 17.4598 9.57997L14.3298 12.08C13.6898 12.61 12.8398 12.87 11.9998 12.87Z" fill="#00CCFF"/> </symbol>
<symbol id="phone" viewBox="0 0 24 24"> <path d="M17.45 22.75C16.32 22.75 15.13 22.48 13.9 21.96C12.7 21.45 11.49 20.75 10.31 19.9C9.14 19.04 8.01 18.08 6.94 17.03C5.88 15.96 4.92 14.83 4.07 13.67C3.21 12.47 2.52 11.27 2.03 10.11C1.51 8.87 1.25 7.67 1.25 6.54C1.25 5.76 1.39 5.02 1.66 4.33C1.94 3.62 2.39 2.96 3 2.39C3.77 1.63 4.65 1.25 5.59 1.25C5.98 1.25 6.38 1.34 6.72 1.5C7.11 1.68 7.44 1.95 7.68 2.31L10 5.58C10.21 5.87 10.37 6.15 10.48 6.43C10.61 6.73 10.68 7.03 10.68 7.32C10.68 7.7 10.57 8.07 10.36 8.42C10.21 8.69 9.98 8.98 9.69 9.27L9.01 9.98C9.02 10.01 9.03 10.03 9.04 10.05C9.16 10.26 9.4 10.62 9.86 11.16C10.35 11.72 10.81 12.23 11.27 12.7C11.86 13.28 12.35 13.74 12.81 14.12C13.38 14.6 13.75 14.84 13.97 14.95L13.95 15L14.68 14.28C14.99 13.97 15.29 13.74 15.58 13.59C16.13 13.25 16.83 13.19 17.53 13.48C17.79 13.59 18.07 13.74 18.37 13.95L21.69 16.31C22.06 16.56 22.33 16.88 22.49 17.26C22.64 17.64 22.71 17.99 22.71 18.34C22.71 18.82 22.6 19.3 22.39 19.75C22.18 20.2 21.92 20.59 21.59 20.95C21.02 21.58 20.4 22.03 19.68 22.32C18.99 22.6 18.24 22.75 17.45 22.75ZM5.59 2.75C5.04 2.75 4.53 2.99 4.04 3.47C3.58 3.9 3.26 4.37 3.06 4.88C2.85 5.4 2.75 5.95 2.75 6.54C2.75 7.47 2.97 8.48 3.41 9.52C3.86 10.58 4.49 11.68 5.29 12.78C6.09 13.88 7 14.95 8 15.96C9 16.95 10.08 17.87 11.19 18.68C12.27 19.47 13.38 20.11 14.48 20.57C16.19 21.3 17.79 21.47 19.11 20.92C19.62 20.71 20.07 20.39 20.48 19.93C20.71 19.68 20.89 19.41 21.04 19.09C21.16 18.84 21.22 18.58 21.22 18.32C21.22 18.16 21.19 18 21.11 17.82C21.08 17.76 21.02 17.65 20.83 17.52L17.51 15.16C17.31 15.02 17.13 14.92 16.96 14.85C16.74 14.76 16.65 14.67 16.31 14.88C16.11 14.98 15.93 15.13 15.73 15.33L14.97 16.08C14.58 16.46 13.98 16.55 13.52 16.38L13.25 16.26C12.84 16.04 12.36 15.7 11.83 15.25C11.35 14.84 10.83 14.36 10.2 13.74C9.71 13.24 9.22 12.71 8.71 12.12C8.24 11.57 7.9 11.1 7.69 10.71L7.57 10.41C7.51 10.18 7.49 10.05 7.49 9.91C7.49 9.55 7.62 9.23 7.87 8.98L8.62 8.2C8.82 8 8.97 7.81 9.07 7.64C9.15 7.51 9.18 7.4 9.18 7.3C9.18 7.22 9.15 7.1 9.1 6.98C9.03 6.82 8.92 6.64 8.78 6.45L6.46 3.17C6.36 3.03 6.24 2.93 6.09 2.86C5.93 2.79 5.76 2.75 5.59 2.75ZM13.95 15.01L13.79 15.69L14.06 14.99C14.01 14.98 13.97 14.99 13.95 15.01Z" fill="#00CCFF"/> </symbol>
<symbol id="rec" viewBox="0 0 575 594"> <g opacity="0.5"> <path d="M483.203 18.2717L475.302 26.1723L515.683 50.752L495.931 70.5035L479.911 70.2841L475.96 74.2344L492.091 82.4642L500.321 98.5946L504.271 94.6443L504.051 78.6236L523.803 58.8721L548.383 99.253L556.283 91.3524L541.634 45.1009L559.411 27.3245C559.411 27.3245 567.311 19.4239 561.221 13.3338C555.131 7.24374 547.23 15.1444 547.23 15.1444L529.454 32.9207L483.203 18.2717Z" fill="white"/> </g> <path d="M487.64 95.0765C488.095 94.6152 488.719 94.3598 489.368 94.3692L489.618 94.3728C490.373 94.3837 490.983 94.9931 490.994 95.7481C491.005 96.5586 490.696 97.3408 490.132 97.9236L10.9563 593.664L2.97869 585.686L487.64 95.0765Z" fill="url(#paint0_linear)"/> <path d="M478.059 86.4655C478.54 86.0047 479.194 85.7686 479.859 85.8155L480.104 85.8328C480.815 85.883 481.37 86.4694 481.38 87.1824C481.392 88.0076 481.065 88.8016 480.475 89.3792L14.8382 545.69L7.08773 537.492L478.059 86.4655Z" fill="url(#paint1_linear)"/>  </symbol>
<symbol id="time" viewBox="0 0 24 24"> <path d="M12 22.75C6.76 22.75 2.5 18.49 2.5 13.25C2.5 8.01 6.76 3.75 12 3.75C17.24 3.75 21.5 8.01 21.5 13.25C21.5 18.49 17.24 22.75 12 22.75ZM12 5.25C7.59 5.25 4 8.84 4 13.25C4 17.66 7.59 21.25 12 21.25C16.41 21.25 20 17.66 20 13.25C20 8.84 16.41 5.25 12 5.25Z" fill="#00CCFF"/> <path d="M12 13.75C11.59 13.75 11.25 13.41 11.25 13V8C11.25 7.59 11.59 7.25 12 7.25C12.41 7.25 12.75 7.59 12.75 8V13C12.75 13.41 12.41 13.75 12 13.75Z" fill="#00CCFF"/> <path d="M15 2.75H9C8.59 2.75 8.25 2.41 8.25 2C8.25 1.59 8.59 1.25 9 1.25H15C15.41 1.25 15.75 1.59 15.75 2C15.75 2.41 15.41 2.75 15 2.75Z" fill="#00CCFF"/> </symbol>
</svg>