<svg width="32" height="32" viewBox="0 0 32 32" fill="none" xmlns="http://www.w3.org/2000/svg">
<path d="M29.3334 21.5868C29.3334 26.4401 26.4401 29.3334 21.5868 29.3334H20.0001C19.2667 29.3334 18.6667 28.7334 18.6667 28.0001V20.3068C18.6667 19.9468 18.9601 19.6401 19.3201 19.6401L21.6667 19.6001C21.8534 19.5868 22.0134 19.4534 22.0534 19.2668L22.5201 16.7201C22.5601 16.4801 22.3734 16.2534 22.1201 16.2534L19.2801 16.2934C18.9067 16.2934 18.6134 16.0001 18.6001 15.6401L18.5468 12.3734C18.5468 12.1601 18.7201 11.9734 18.9467 11.9734L22.1467 11.9201C22.3734 11.9201 22.5468 11.7468 22.5468 11.5201L22.4934 8.32007C22.4934 8.0934 22.3201 7.92009 22.0934 7.92009L18.4934 7.97343C16.2801 8.01343 14.5201 9.82675 14.5601 12.0401L14.6267 15.7067C14.6401 16.0801 14.3468 16.3734 13.9734 16.3868L12.3734 16.4134C12.1467 16.4134 11.9734 16.5867 11.9734 16.8134L12.0134 19.3468C12.0134 19.5734 12.1867 19.7467 12.4134 19.7467L14.0134 19.7201C14.3868 19.7201 14.6801 20.0134 14.6934 20.3734L14.8134 27.9734C14.8267 28.7201 14.2267 29.3334 13.4801 29.3334H10.4134C5.56008 29.3334 2.66675 26.4401 2.66675 21.5734V10.4134C2.66675 5.56008 5.56008 2.66675 10.4134 2.66675H21.5868C26.4401 2.66675 29.3334 5.56008 29.3334 10.4134V21.5868Z" fill="white"/>
</svg>
