<svg width="575" height="594" viewBox="0 0 575 594" fill="none" xmlns="http://www.w3.org/2000/svg">
<g opacity="0.5">
<path d="M483.203 18.2717L475.302 26.1723L515.683 50.752L495.931 70.5035L479.911 70.2841L475.96 74.2344L492.091 82.4642L500.321 98.5946L504.271 94.6443L504.051 78.6236L523.803 58.8721L548.383 99.253L556.283 91.3524L541.634 45.1009L559.411 27.3245C559.411 27.3245 567.311 19.4239 561.221 13.3338C555.131 7.24374 547.23 15.1444 547.23 15.1444L529.454 32.9207L483.203 18.2717Z" fill="white"/>
</g>
<path d="M487.64 95.0765C488.095 94.6152 488.719 94.3598 489.368 94.3692L489.618 94.3728C490.373 94.3837 490.983 94.9931 490.994 95.7481C491.005 96.5586 490.696 97.3408 490.132 97.9236L10.9563 593.664L2.97869 585.686L487.64 95.0765Z" fill="url(#paint0_linear)"/>
<path d="M478.059 86.4655C478.54 86.0047 479.194 85.7686 479.859 85.8155L480.104 85.8328C480.815 85.883 481.37 86.4694 481.38 87.1824C481.392 88.0076 481.065 88.8016 480.475 89.3792L14.8382 545.69L7.08773 537.492L478.059 86.4655Z" fill="url(#paint1_linear)"/>
<defs>
<linearGradient id="paint0_linear" x1="495.123" y1="98.541" x2="202.988" y2="390.675" gradientUnits="userSpaceOnUse">
<stop stop-color="#ABD1F0"/>
<stop offset="1" stop-color="#ABD2F1" stop-opacity="0"/>
</linearGradient>
<linearGradient id="paint1_linear" x1="485.392" y1="90.1849" x2="201.473" y2="358.592" gradientUnits="userSpaceOnUse">
<stop stop-color="#ABD1F0"/>
<stop offset="1" stop-color="#ABD2F1" stop-opacity="0"/>
</linearGradient>
</defs>
</svg>
